<?xml version="1.0" encoding="utf-8"?>
<!-- Generator: Adobe Illustrator 25.4.1, SVG Export Plug-In . SVG Version: 6.00 Build 0)  -->
<svg version="1.1" id="Layer_1" xmlns="http://www.w3.org/2000/svg" xmlns:xlink="http://www.w3.org/1999/xlink" x="0px" y="0px"
	 viewBox="0 0 348 104" style="enable-background:new 0 0 348 104;" xml:space="preserve">
<style type="text/css">
	.st0{display:none;}
	.st1{display:inline;fill:#B42322;}
	.st2{display:inline;opacity:0.54;}
	.st3{clip-path:url(#SVGID_00000172421870070425708900000005137236031102537146_);}
	.st4{clip-path:url(#SVGID_00000008108348265250307440000012250356306498715520_);}
	.st5{clip-path:url(#SVGID_00000129897421364317977370000012010934380055457937_);}
	.st6{display:inline;opacity:0.9;}
	.st7{clip-path:url(#SVGID_00000052802712032009235790000003234870517069084819_);}
	.st8{fill-rule:evenodd;clip-rule:evenodd;fill:url(#SVGID_00000092453092843285722630000014266147713577545642_);}
	.st9{fill:#B83B77;}
	.st10{fill:#117FB9;}
	.st11{fill:#76A249;}
	.st12{fill:#353535;}
	.st13{fill:none;stroke:#000000;stroke-width:0.75;stroke-miterlimit:10;}
</style>
<g>
	<g>
		<g>
			<g>
				<g>
					<g>
						<g>
							<g>
								<path class="st9" d="M103.4,30.6c5.7,0.6,11.4,1.1,17,1.6c-0.5,0.4-1,0.6-1.6,1c-1.7,1-3.8,1.3-6.1,1.3
									c-2.5,0-4.8-0.5-6.7-1.7C105.2,32.2,104.3,31.4,103.4,30.6z"/>
							</g>
						</g>
					</g>
				</g>
			</g>
		</g>
		<g>
			<g>
				<g>
					<g>
						<g>
							<g>
								<path class="st9" d="M136.1,33.3c3.1,0.4,6.1,0.4,9.2,0.5c-1.1,0.4-2.4,0.5-3.8,0.5C139.7,34.5,137.8,34.3,136.1,33.3z"/>
							</g>
						</g>
					</g>
				</g>
			</g>
		</g>
		<g>
			<g>
				<g>
					<g>
						<g>
							<g>
								<path class="st10" d="M117.1,23.2c2.7,0.4,5.7,0.5,8.6,0.6v1c-0.4,1.7-1,3.4-2.1,4.8c-0.9,1-1.6,1.8-2.6,2.5
									c-5.7-0.5-11.4-1-17-1.6c-0.6-0.9-1.3-1.6-1.8-2.5c-1-1.8-1.4-3.9-1.6-6.2c1.7,0.1,3.7,0.4,5.2,0.4c0.1,2.1,1,3.9,2.1,5.1
									c1.4,1.6,3.6,2.3,6.1,2.3c1.8,0,3.6-0.5,4.8-1.6c1.3-1,2.3-2.6,2.6-4.6h-8.9v-0.7C113.7,23.1,115.3,23.1,117.1,23.2z"/>
							</g>
						</g>
					</g>
				</g>
			</g>
		</g>
		<g>
			<g>
				<g>
					<g>
						<g>
							<g>
								<path class="st10" d="M154.2,25c-0.4,1-0.6,2.1-1.1,3.1c-1.1,2-2.6,3.7-4.6,4.8c-1,0.5-2,1-3,1.1c-3.1-0.1-6.1-0.4-9.2-0.5
									c-0.4-0.1-1-0.4-1.3-0.6c-2-1.1-3.7-2.7-4.6-4.8c-0.6-1.3-1.1-2.6-1.4-4.2c1.8,0,3.7,0.1,5.5,0.1l0,0c0,0.1,0.1,0.4,0.1,0.4
									l0,0v0.1c0,0.1,0.1,0.4,0.1,0.4c0.1,0.4,0.1,0.4,0.4,0.6c0.6,1.3,1.6,2.3,2.6,3c1.1,0.6,2.5,1,4,1c1.6,0,3-0.4,4-1
									c1.1-0.6,2.1-1.7,2.7-3c0-0.1,0.1-0.4,0.1-0.4l0.1-0.4c0,0,0,0,0-0.1v-0.2C150.6,24.8,152.4,25,154.2,25z"/>
							</g>
						</g>
					</g>
				</g>
			</g>
		</g>
		<g>
			<g>
				<g>
					<g>
						<g>
							<g>
								<path class="st10" d="M181.1,25.1c-0.4,1-0.6,1.8-1,2.7c-1,2-2.6,3.6-4.6,4.6c-2.1,1-4.6,1.6-7.3,1.6h-9.4v-9.2
									c1.7,0,3.6,0,5.1,0.1v4.5h3.7c2.7,0,5-0.9,6.5-2.3c0.1-0.1,0.4-0.4,0.5-0.5c0.1-0.1,0.4-0.4,0.4-0.5l0,0
									c0-0.1,0.1-0.1,0.1-0.4c0,0,0,0,0-0.1c0-0.1,0.1-0.1,0.1-0.4c0.1-0.1,0.1-0.4,0.4-0.4l0,0C177.3,25.1,179.2,25.1,181.1,25.1
									z"/>
							</g>
						</g>
					</g>
				</g>
			</g>
		</g>
		<g>
			<g>
				<g>
					<g>
						<g>
							<g>
								<path class="st10" d="M189.9,25.1c0.4,0,0.6,0,1,0v9.2h-5.1v-9.2C186.8,25.1,188.3,25.1,189.9,25.1z"/>
							</g>
						</g>
					</g>
				</g>
			</g>
		</g>
		<g>
			<g>
				<g>
					<g>
						<g>
							<g>
								<path class="st10" d="M199.1,25.1l5.7,9.2h-5.7l-5.5-9.2C195.6,25.1,197.5,25.1,199.1,25.1z"/>
							</g>
						</g>
					</g>
				</g>
			</g>
		</g>
		<g>
			<g>
				<g>
					<g>
						<g>
							<g>
								<path class="st10" d="M213.6,30.1H224v4.2h-15.6V25c1.7,0,3.6-0.1,5.1-0.1V30.1L213.6,30.1z"/>
							</g>
						</g>
					</g>
				</g>
			</g>
		</g>
		<g>
			<g>
				<g>
					<g>
						<g>
							<g>
								<path class="st10" d="M242.6,23.1L242.6,23.1v3.7c0,2.5-0.6,4.6-2.1,5.8c-1.4,1.4-3.4,2.1-5.8,2.1c-2.6,0-4.8-0.9-6.4-2.3
									c-1.6-1.6-2.4-3.8-2.4-6.5h5.1c0,1.3,0.4,2.4,0.9,3.1c0.5,0.6,1.3,1,2.4,1s1.7-0.4,2.1-0.9c0.5-0.5,0.6-1.3,0.6-2.4v-3.2
									C239.1,23.2,241.1,23.2,242.6,23.1z"/>
							</g>
						</g>
					</g>
				</g>
			</g>
		</g>
		<g>
			<g>
				<g>
					<g>
						<g>
							<g>
								<g>
									<path class="st11" d="M113,12.7c-1.4,0-2.7,0.4-4,1c-1.1,0.6-2.1,1.7-2.6,3c-0.6,1.3-1,2.7-1,4.6c0,0.4,0,0.9,0,1.1
										c-1.7-0.1-3.7-0.4-5.2-0.4c0-0.4,0-0.5,0-0.9c0-2.5,0.5-5,1.6-6.9c1.1-1.9,2.5-3.7,4.6-4.6c2-1.1,4.3-1.7,6.7-1.7
										c3.1,0,5.8,0.9,8,2.4c2.2,1.5,3.6,3.8,4,6.4h-5.5c-0.5-1.1-1.3-2.1-2.4-2.7C115.8,13,114.5,12.7,113,12.7z"/>
								</g>
							</g>
						</g>
					</g>
				</g>
			</g>
			<g>
				<g>
					<g>
						<g>
							<g>
								<g>
									<path class="st11" d="M112.1,19.9h13.2v3.9c-2.7-0.1-5.7-0.4-8.6-0.6c-1.6,0-3.1-0.1-4.6-0.4
										C112.1,22.8,112.1,19.9,112.1,19.9z"/>
								</g>
							</g>
						</g>
					</g>
				</g>
			</g>
			<g>
				<g>
					<g>
						<g>
							<g>
								<g>
									<path class="st11" d="M154.7,21.2c0,1.3-0.1,2.6-0.5,3.9c-1.8,0-3.7-0.1-5.5-0.4c0,0,0,0,0-0.1c0-0.1,0.1-0.4,0.1-0.5
										c0-0.1,0-0.1,0.1-0.4c0-0.1,0.1-0.4,0.1-0.5s0-0.1,0-0.4c0-0.2,0-0.1,0-0.4v-0.1l0,0c0,0,0,0,0-0.1c0-0.1,0-0.4,0-0.4
										c0-0.4,0-0.5,0-0.9c0-1.7-0.4-3.1-1-4.6s-1.6-2.3-2.7-3c-1.1-0.8-2.5-1-4-1c-1.6,0-3,0.4-4,1c-1.1,0.6-2.1,1.7-2.6,3
										c-0.6,1.3-1,2.7-1,4.6c0,0.4,0,0.5,0,0.9c0,0.1,0,0.4,0,0.5s0,0.4,0.1,0.5c0,0.4,0.1,0.9,0.4,1c-1.8,0-3.7-0.1-5.5-0.1
										c-0.1-1-0.4-1.8-0.4-2.7c0-2.5,0.5-5,1.7-6.9c1.1-2,2.6-3.7,4.6-4.8c2-1.1,4.3-1.7,6.6-1.7c2.4,0,4.6,0.5,6.6,1.7
										c1.9,1.2,3.7,2.6,4.6,4.8C154.1,16.4,154.7,18.5,154.7,21.2z"/>
								</g>
							</g>
						</g>
					</g>
				</g>
			</g>
			<g>
				<g>
					<g>
						<g>
							<g>
								<g>
									<path class="st11" d="M181.6,21.2c0,1.4-0.1,2.7-0.5,4c-1.8,0-3.8,0-5.6,0c0-0.1,0.1-0.4,0.1-0.4s0.1-0.1,0.1-0.4
										c0.1-0.4,0.4-0.9,0.4-1.1c0-0.1,0-0.4,0-0.4l0,0c0-0.1,0-0.4,0-0.6c0-0.1,0-0.1,0-0.4l0,0c0-0.4,0-0.5,0-0.9
										c0-2.6-0.9-4.8-2.3-6.3c-1.6-1.4-3.8-2.3-6.5-2.3h-3.7v12.5c-1.7,0-3.6,0-5.1-0.1V8.2h9.3c2.7,0,5.2,0.5,7.3,1.6
										c2.1,1,3.7,2.5,4.6,4.6C181.1,16.4,181.6,18.5,181.6,21.2z"/>
								</g>
							</g>
						</g>
					</g>
				</g>
			</g>
			<g>
				<g>
					<g>
						<g>
							<g>
								<g>
									<path class="st11" d="M204.9,16.4c0-2.4-0.9-4.5-2.4-5.8c-1.6-1.4-3.9-2.3-6.9-2.3h-10.1v16.9c1.4,0,3,0,4.3,0
										c0.4,0,0.6,0,1,0c1,0,2,0,3,0c1.8,0,3.8,0,5.6,0l-0.9-1.3c2.1-0.4,3.7-1.3,4.8-2.6C204.3,19.9,204.9,18.1,204.9,16.4z
										 M195,20.4h-4.3v-8h4.3c1.6,0,2.6,0.4,3.4,1c0.9,0.6,1,1.7,1,3C199.6,19,198.1,20.4,195,20.4z"/>
								</g>
							</g>
						</g>
					</g>
				</g>
			</g>
			<g>
				<g>
					<g>
						<g>
							<g>
								<g>
									<path class="st11" d="M208.4,8.2H224v4.2h-10.4v6.7h9.3v4h-9.3v1.7c-1.7,0-3.6,0.1-5.1,0.1V8.2L208.4,8.2z"/>
								</g>
							</g>
						</g>
					</g>
				</g>
			</g>
			<g>
				<g>
					<g>
						<g>
							<g>
								<g>
									<path class="st11" d="M237.5,8.2h5.1v15l0,0c-1.7,0.1-3.6,0.4-5.1,0.4V8.2z"/>
								</g>
							</g>
						</g>
					</g>
				</g>
			</g>
		</g>
	</g>
	<g>
		<path class="st12" d="M13.1,45.4v7.1h9.5V57h-9.5v7.5h10.8v4.6H7.4V40.8h16.5v4.6H13.1z"/>
		<path class="st12" d="M50.4,40.8v4.6h-7.6v23.8h-5.7V45.4h-7.6v-4.6H50.4z"/>
		<path class="st12" d="M62.2,45.4v7.1h9.5V57h-9.5v7.5H73v4.6H56.5V40.8H73v4.6H62.2z"/>
		<path class="st12" d="M94.8,69.2l-6.3-11.1h-2.7v11.1h-5.7V40.8h10.6c2.2,0,4.1,0.4,5.6,1.2c1.5,0.8,2.7,1.8,3.5,3.1
			c0.8,1.3,1.2,2.8,1.2,4.4c0,1.9-0.5,3.6-1.6,5.1c-1.1,1.5-2.7,2.5-4.8,3.1l6.8,11.5H94.8z M85.9,53.9h4.8c1.5,0,2.7-0.4,3.5-1.1
			c0.8-0.7,1.1-1.8,1.1-3.1c0-1.3-0.4-2.3-1.1-3c-0.8-0.7-1.9-1.1-3.5-1.1h-4.8V53.9z"/>
		<path class="st12" d="M132.5,69.2h-5.7l-12.9-19.5v19.5h-5.7V40.8h5.7l12.9,19.5V40.8h5.7V69.2z"/>
		<path class="st12" d="M157.5,63.8h-11.3l-1.9,5.4h-6l10.2-28.4h6.6l10.2,28.4h-6L157.5,63.8z M156,59.2l-4.1-11.9l-4.1,11.9H156z"
			/>
		<path class="st12" d="M177,64.7h9.3v4.5h-15V40.8h5.7V64.7z"/>
		<path class="st12" d="M223.3,53.9c-0.7,1.3-1.8,2.4-3.4,3.2s-3.5,1.2-5.8,1.2h-4.8v10.9h-5.7V40.8h10.4c2.2,0,4.1,0.4,5.6,1.1
			c1.5,0.8,2.7,1.8,3.5,3.1c0.8,1.3,1.2,2.8,1.2,4.5C224.3,51.1,224,52.5,223.3,53.9z M217.4,52.6c0.8-0.7,1.1-1.7,1.1-3
			c0-2.8-1.5-4.1-4.6-4.1h-4.5v8.2h4.5C215.4,53.7,216.6,53.4,217.4,52.6z"/>
		<path class="st12" d="M247.8,63.8h-11.3l-1.9,5.4h-6l10.2-28.4h6.6l10.2,28.4h-6L247.8,63.8z M246.2,59.2l-4.1-11.9L238,59.2
			H246.2z"/>
		<path class="st12" d="M267.2,64.7h9.3v4.5h-15V40.8h5.7V64.7z"/>
		<path class="st12" d="M313.1,40.8v28.4h-5.7V50.7l-7.6,18.4h-4.3l-7.6-18.4v18.4h-5.7V40.8h6.5l9,21.1l9-21.1H313.1z"/>
		<path class="st12" d="M325.2,68.5c-1.6-0.7-2.8-1.7-3.8-2.9c-0.9-1.3-1.4-2.8-1.4-4.5h6.1c0.1,1.2,0.5,2.1,1.2,2.8
			c0.7,0.7,1.8,1,3.1,1c1.3,0,2.4-0.3,3.1-1c0.8-0.6,1.1-1.5,1.1-2.5c0-0.8-0.3-1.5-0.8-2.1c-0.5-0.5-1.2-1-1.9-1.3s-1.8-0.7-3.2-1
			c-1.8-0.5-3.3-1.1-4.5-1.6c-1.2-0.5-2.1-1.3-3-2.4c-0.8-1.1-1.2-2.5-1.2-4.3c0-1.7,0.4-3.1,1.3-4.4c0.8-1.2,2-2.2,3.5-2.9
			c1.5-0.7,3.3-1,5.2-1c2.9,0,5.3,0.7,7.1,2.1c1.8,1.4,2.8,3.4,3,6H334c-0.1-1-0.5-1.8-1.2-2.4c-0.8-0.6-1.8-1-3.1-1
			c-1.1,0-2,0.3-2.7,0.9c-0.7,0.6-1,1.4-1,2.5c0,0.8,0.3,1.4,0.8,1.9c0.5,0.5,1.1,0.9,1.9,1.2c0.7,0.3,1.8,0.7,3.1,1.1
			c1.8,0.5,3.3,1.1,4.5,1.6c1.2,0.5,2.2,1.4,3,2.4c0.8,1.1,1.3,2.5,1.3,4.3c0,1.5-0.4,2.9-1.2,4.2c-0.8,1.3-1.9,2.3-3.5,3.1
			c-1.5,0.8-3.3,1.2-5.4,1.2C328.6,69.5,326.8,69.1,325.2,68.5z"/>
	</g>
	<g>
		<rect x="5.4" y="75.5" class="st12" width="337.1" height="0.8"/>
	</g>
	<g>
		<path class="st12" d="M13.6,93.4c-0.7-0.3-1.2-0.7-1.6-1.3c-0.4-0.6-0.6-1.2-0.6-2h2.3c0,0.6,0.3,1,0.7,1.4
			c0.4,0.4,0.9,0.5,1.6,0.5c0.7,0,1.3-0.2,1.7-0.5s0.6-0.8,0.6-1.4c0-0.4-0.1-0.8-0.4-1.1c-0.3-0.3-0.6-0.5-1-0.6
			c-0.4-0.1-0.9-0.3-1.6-0.5c-0.8-0.2-1.5-0.5-2.1-0.7c-0.5-0.2-1-0.6-1.4-1.1c-0.4-0.5-0.6-1.1-0.6-1.9c0-0.7,0.2-1.4,0.6-2
			c0.4-0.6,0.9-1,1.6-1.3c0.7-0.3,1.4-0.4,2.3-0.4c1.3,0,2.3,0.3,3.1,0.9c0.8,0.6,1.2,1.5,1.3,2.6h-2.3c0-0.5-0.3-0.9-0.7-1.2
			c-0.4-0.3-1-0.5-1.6-0.5c-0.6,0-1.1,0.2-1.5,0.5c-0.4,0.3-0.6,0.8-0.6,1.3c0,0.4,0.1,0.7,0.4,1c0.2,0.3,0.5,0.5,0.9,0.6
			c0.4,0.1,0.9,0.3,1.5,0.5c0.9,0.2,1.6,0.5,2.1,0.7s1,0.6,1.4,1.1c0.4,0.5,0.6,1.1,0.6,2c0,0.7-0.2,1.3-0.5,1.9
			c-0.4,0.6-0.9,1.1-1.5,1.4c-0.7,0.4-1.5,0.5-2.4,0.5C15.1,93.8,14.3,93.7,13.6,93.4z"/>
		<path class="st12" d="M36.3,91h-5.4L30,93.7h-2.2l4.6-13h2.5l4.6,13h-2.2L36.3,91z M35.7,89.3l-2.1-6l-2.1,6H35.7z"/>
		<path class="st12" d="M57.7,93.7h-2.1L49.2,84v9.7h-2.1v-13h2.1l6.4,9.7v-9.7h2.1V93.7z"/>
		<path class="st12" d="M74.7,86.5c-0.3,0.6-0.8,1.1-1.5,1.4c-0.7,0.4-1.6,0.6-2.6,0.6h-2.3v5.3h-2.1v-13h4.5c1,0,1.8,0.2,2.5,0.5
			c0.7,0.3,1.2,0.8,1.5,1.4c0.3,0.6,0.5,1.2,0.5,2C75.2,85.2,75,85.9,74.7,86.5z M72.4,86.1c0.4-0.4,0.6-0.9,0.6-1.6
			c0-1.4-0.8-2.1-2.4-2.1h-2.3v4.2h2.3C71.4,86.7,72,86.5,72.4,86.1z"/>
		<path class="st12" d="M90.6,91h-5.4l-0.9,2.6H82l4.6-13h2.5l4.6,13h-2.2L90.6,91z M90,89.3l-2.1-6l-2.1,6H90z"/>
		<path class="st12" d="M109.2,81.5c1,0.5,1.8,1.3,2.4,2.3c0.6,1,0.8,2.1,0.8,3.5s-0.3,2.5-0.8,3.4c-0.6,1-1.4,1.7-2.4,2.2
			c-1,0.5-2.2,0.8-3.6,0.8h-4.2v-13h4.2C107,80.7,108.2,81,109.2,81.5z M109.1,90.7c0.8-0.8,1.2-2,1.2-3.5c0-1.5-0.4-2.7-1.2-3.5
			c-0.8-0.8-2-1.3-3.5-1.3h-2.1v9.5h2.1C107.1,91.9,108.3,91.5,109.1,90.7z"/>
		<path class="st12" d="M128,91h-5.4l-0.9,2.6h-2.2l4.6-13h2.5l4.6,13h-2.2L128,91z M127.4,89.3l-2.1-6l-2.1,6H127.4z"/>
		<path class="st12" d="M141.1,91.1l-2.3,5.1h-1.4l1.3-5.1H141.1z"/>
		<path class="st12" d="M169.6,93.7h-2.1l-6.4-9.7v9.7H159v-13h2.1l6.4,9.7v-9.7h2.1V93.7z"/>
		<path class="st12" d="M185.8,91h-5.4l-0.9,2.6h-2.2l4.6-13h2.5l4.6,13h-2.2L185.8,91z M185.3,89.3l-2.1-6l-2.1,6H185.3z"/>
		<path class="st12" d="M207.8,80.7l-4.9,13h-2.5l-4.9-13h2.3l3.8,10.8l3.9-10.8H207.8z"/>
		<path class="st12" d="M217.3,80.7v13h-2.1v-13H217.3z"/>
		<path class="st12" d="M249.7,80.7v13h-2.1v-8.9l-4,8.9h-1.5l-4-8.9v8.9h-2.1v-13h2.3l4.5,10.2l4.5-10.2H249.7z"/>
		<path class="st12" d="M260.2,80.7V89c0,1,0.3,1.7,0.8,2.2c0.5,0.5,1.2,0.7,2.2,0.7c0.9,0,1.7-0.2,2.2-0.7c0.5-0.5,0.8-1.2,0.8-2.2
			v-8.3h2.1v8.2c0,1.1-0.2,2-0.7,2.7c-0.5,0.7-1.1,1.3-1.8,1.6c-0.8,0.4-1.6,0.5-2.6,0.5s-1.8-0.2-2.5-0.5c-0.8-0.4-1.4-0.9-1.8-1.6
			c-0.4-0.7-0.7-1.6-0.7-2.7v-8.2H260.2z"/>
		<path class="st12" d="M290.2,80.7v13h-2.1v-8.9l-4,8.9h-1.5l-4-8.9v8.9h-2.1v-13h2.3l4.5,10.2l4.5-10.2H290.2z"/>
		<path class="st12" d="M307.3,88.1c0.5,0.6,0.7,1.3,0.7,2.1c0,0.7-0.2,1.3-0.5,1.8c-0.3,0.5-0.8,0.9-1.5,1.2
			c-0.6,0.3-1.4,0.5-2.3,0.5h-5.2v-13h4.9c0.9,0,1.6,0.1,2.3,0.4c0.6,0.3,1.1,0.7,1.4,1.2c0.3,0.5,0.5,1.1,0.5,1.7
			c0,0.7-0.2,1.4-0.6,1.9c-0.4,0.5-0.9,0.9-1.6,1.1C306.3,87.2,306.8,87.5,307.3,88.1z M300.7,86.2h2.6c0.7,0,1.2-0.2,1.6-0.5
			c0.4-0.3,0.6-0.8,0.6-1.4c0-0.6-0.2-1-0.6-1.4c-0.4-0.3-0.9-0.5-1.6-0.5h-2.6V86.2z M305.3,91.4c0.4-0.3,0.6-0.8,0.6-1.5
			c0-0.6-0.2-1.1-0.7-1.5c-0.4-0.4-1-0.6-1.7-0.6h-2.8v4h2.9C304.3,91.9,304.9,91.8,305.3,91.4z"/>
		<path class="st12" d="M323.8,91h-5.4l-0.9,2.6h-2.2l4.6-13h2.5l4.6,13h-2.2L323.8,91z M323.2,89.3l-2.1-6l-2.1,6H323.2z"/>
		<path class="st12" d="M336.7,80.7v13h-2.1v-13H336.7z"/>
	</g>
</g>
</svg>
