<?xml version="1.0" encoding="utf-8"?>
<!-- Generator: Adobe Illustrator 25.4.1, SVG Export Plug-In . SVG Version: 6.00 Build 0)  -->
<svg version="1.1" id="Layer_1" xmlns="http://www.w3.org/2000/svg" xmlns:xlink="http://www.w3.org/1999/xlink" x="0px" y="0px"
	 viewBox="0 0 348 104" style="enable-background:new 0 0 348 104;" xml:space="preserve">
<style type="text/css">
	.st0{fill:url(#SVGID_1_);}
	.st1{fill:url(#SVGID_00000173123114255995895100000017039435609424440231_);}
	.st2{fill:url(#SVGID_00000172415402289429721770000003402146385263240591_);}
	.st3{fill:url(#SVGID_00000017484442054268135480000001529744516540921276_);}
	.st4{fill:url(#SVGID_00000003089526424548669490000000812143306714370223_);}
	.st5{fill:#231F20;}
	.st6{fill:#606060;}
	.st7{fill:none;stroke:#D59A50;stroke-width:2;stroke-miterlimit:10;}
</style>
<g>
	
		<linearGradient id="SVGID_1_" gradientUnits="userSpaceOnUse" x1="101.7263" y1="88.65" x2="121.9263" y2="88.65" gradientTransform="matrix(1 0 0 -1 0 106)">
		<stop  offset="0" style="stop-color:#3056A2"/>
		<stop  offset="1" style="stop-color:#3256A6"/>
	</linearGradient>
	<path class="st0" d="M120.3,6.1c-0.9,0-1.6,0.7-1.6,1.6v15.6L105.6,6.9c-0.4-0.5-1-0.8-1.7-0.8c-1.2,0-2.2,1-2.2,2.2V27
		c0,0.9,0.7,1.6,1.7,1.6c0.9,0,1.6-0.7,1.6-1.6V11.4l13,16.4c0.4,0.5,1,0.8,1.7,0.8c1.2,0,2.2-1,2.2-2.2V7.7
		C121.9,6.8,121.2,6.1,120.3,6.1"/>
	
		<linearGradient id="SVGID_00000038389812802834129920000015849857807137638584_" gradientUnits="userSpaceOnUse" x1="190.618" y1="88.65" x2="206.8778" y2="88.65" gradientTransform="matrix(1 0 0 -1 0 106)">
		<stop  offset="0" style="stop-color:#3056A2"/>
		<stop  offset="1" style="stop-color:#3256A6"/>
	</linearGradient>
	<path style="fill:url(#SVGID_00000038389812802834129920000015849857807137638584_);" d="M205.4,25.7h-11.5v-18
		c0-0.9-0.7-1.6-1.6-1.6c-0.9,0-1.6,0.7-1.6,1.6v19.1c0,1,0.8,1.8,1.8,1.8h12.9c0.8,0,1.5-0.6,1.6-1.4c0-0.4-0.1-0.8-0.4-1.1
		C206.2,25.8,205.8,25.7,205.4,25.7"/>
	
		<linearGradient id="SVGID_00000008828399621623623680000011933169655935498657_" gradientUnits="userSpaceOnUse" x1="213.7848" y1="88.6" x2="217.0848" y2="88.6" gradientTransform="matrix(1 0 0 -1 0 106)">
		<stop  offset="0" style="stop-color:#3056A2"/>
		<stop  offset="1" style="stop-color:#3256A6"/>
	</linearGradient>
	<path style="fill:url(#SVGID_00000008828399621623623680000011933169655935498657_);" d="M215.4,6.1c-0.9,0-1.6,0.7-1.6,1.7V27
		c0,0.9,0.7,1.7,1.6,1.7c0.9,0,1.7-0.7,1.7-1.7V7.7C217.1,6.8,216.3,6.1,215.4,6.1"/>
	
		<linearGradient id="SVGID_00000152249802562308939590000004177872374477528751_" gradientUnits="userSpaceOnUse" x1="224.4098" y1="88.6" x2="246.2867" y2="88.6" gradientTransform="matrix(1 0 0 -1 0 106)">
		<stop  offset="0" style="stop-color:#3056A2"/>
		<stop  offset="1" style="stop-color:#3256A6"/>
	</linearGradient>
	<path style="fill:url(#SVGID_00000152249802562308939590000004177872374477528751_);" d="M246,6.8c-0.3-0.4-0.8-0.7-1.3-0.7
		c-0.6,0-1.2,0.4-1.4,0.9l-8,17.2L227.6,7c-0.2-0.6-0.8-0.9-1.4-0.9H226c-0.5,0-1,0.3-1.3,0.7c-0.3,0.4-0.3,1-0.1,1.5l8.6,19
		c0.4,0.8,1.2,1.4,2.1,1.4c0.9,0,1.7-0.5,2.1-1.4l8.9-19C246.4,7.8,246.3,7.2,246,6.8"/>
	
		<linearGradient id="SVGID_00000073682691767160078260000018445075295972553916_" gradientUnits="userSpaceOnUse" x1="128.681" y1="88.6" x2="183.8537" y2="88.6" gradientTransform="matrix(1 0 0 -1 0 106)">
		<stop  offset="0" style="stop-color:#3056A2"/>
		<stop  offset="1" style="stop-color:#3256A6"/>
	</linearGradient>
	<path style="fill:url(#SVGID_00000073682691767160078260000018445075295972553916_);" d="M178.8,7.8c-0.1-0.1-0.1-0.2-0.2-0.3
		l-0.2-0.3c-0.1-0.1-0.1-0.1-0.2-0.2l-0.1-0.1L178,6.8c-0.2-0.1-0.4-0.3-0.6-0.4h-0.1c-0.1,0-0.1-0.1-0.1-0.1
		c-0.1-0.1-0.3-0.1-0.4-0.1c-0.3-0.1-0.6-0.1-0.9-0.1h-9.2c-0.2,0-0.4,0-0.6,0.1c-0.1,0-0.2,0-0.3,0.1c-0.1,0-0.1,0-0.2,0.1h-0.1
		c-0.1,0-0.2,0.1-0.2,0.1c-0.1,0-0.1,0.1-0.2,0.1l-0.2,0.1c-0.1,0.1-0.1,0.1-0.2,0.1c-0.1,0-0.1,0.1-0.2,0.2l-16.2,16.2l-1.3,1.3
		c-0.6,0.6-1.4,1-2.3,1h-6.6h-0.2h-0.1h-0.1c-0.1,0-0.2,0-0.3-0.1c-0.1,0-0.2-0.1-0.3-0.1c-0.3-0.1-0.6-0.3-0.9-0.6l-0.1-0.1
		c0-0.1-0.1-0.1-0.1-0.2l-0.1-0.1l-0.1-0.1l-3.1-5.4c-0.1-0.1-0.1-0.2-0.2-0.3c-0.1-0.2-0.1-0.3-0.2-0.5c-0.1-0.4-0.1-0.8,0-1.2
		c0-0.1,0-0.1,0.1-0.2c0.1-0.2,0.1-0.3,0.2-0.5l3.1-5.4c0,0,0-0.1,0.1-0.1l0.1-0.1l0,0c0-0.1,0.1-0.1,0.1-0.2l0.1-0.1
		c0.1-0.1,0.2-0.2,0.3-0.2c0.1-0.1,0.3-0.2,0.4-0.3c0.2-0.1,0.3-0.1,0.5-0.2c0.1,0,0.2-0.1,0.3-0.1h0.1c0.1,0,0.1,0,0.2,0h0.1h6.2
		c0.1,0,0.1,0,0.2,0h0.3c0.6,0,1.2,0.3,1.5,0.9l0.1,0.2c0.1,0.1,0.1,0.1,0.1,0.2l2.1,3.6h-9.6v2.9h12.3c0.5,0,1-0.3,1.2-0.7
		c0.3-0.5,0.3-1.1,0-1.5l-0.7-1.2l0,0l-3.4-5.9l-0.1-0.2c-0.1-0.1-0.2-0.2-0.3-0.4c0,0-0.1-0.1-0.1-0.2c-0.2-0.3-0.5-0.5-0.9-0.6
		c-0.1,0-0.1-0.1-0.2-0.1c-0.1-0.1-0.3-0.1-0.4-0.1c-0.3-0.1-0.6-0.1-0.9-0.1h-9.2c-0.9,0-1.7,0.4-2.3,0.9c-0.1,0.1-0.2,0.2-0.3,0.3
		c-0.1,0.1-0.2,0.2-0.2,0.4l-4.6,8c-0.6,1-0.6,2.3,0,3.3l4.4,7.6l0.5,0.8c0.1,0.2,0.3,0.4,0.5,0.5c0.2,0.2,0.4,0.3,0.6,0.4
		c0,0,0.1,0,0.2,0.1c0.1,0.1,0.3,0.1,0.4,0.1c0.3,0.1,0.6,0.1,0.9,0.1h9.2c0.2,0,0.4,0,0.6-0.1c0.1,0,0.2,0,0.3-0.1
		c0.2-0.1,0.4-0.1,0.6-0.2c0.1,0,0.1-0.1,0.2-0.1l0.1-0.1c0.1,0,0.1-0.1,0.2-0.1c0.1-0.1,0.2-0.1,0.3-0.2L164,11.6l1.3-1.3
		c0.6-0.6,1.4-1,2.3-1h6.6c0,0,0.1,0,0.2,0c0.1,0,0.1,0,0.2,0l0,0c0.1,0,0.2,0,0.3,0.1c0.1,0,0.2,0.1,0.3,0.1
		c0.3,0.1,0.6,0.3,0.9,0.6l0.1,0.1c0.1,0.1,0.1,0.1,0.2,0.2l0.1,0.1c0,0.1,0.1,0.1,0.1,0.2L180,16v0.1c0,0.1,0.1,0.2,0.1,0.3
		c0.1,0.2,0.1,0.3,0.2,0.5c0.1,0.4,0.1,0.8,0,1.2c0,0.1,0,0.1-0.1,0.2c0,0.2-0.1,0.3-0.2,0.5l-3.1,5.4c0,0.1-0.1,0.1-0.1,0.2v0.1
		c-0.1,0.1-0.1,0.1-0.2,0.2l-0.1,0.1c-0.1,0.1-0.2,0.2-0.2,0.2c-0.1,0.1-0.3,0.2-0.4,0.3c-0.2,0.1-0.3,0.1-0.5,0.2
		c-0.1,0-0.2,0.1-0.3,0.1l0,0c-0.1,0-0.2,0-0.3,0h-6.2c-0.1,0-0.2,0-0.2,0h-0.3c-0.6,0-1.2-0.3-1.5-0.9l-0.1-0.2
		c-0.1-0.1-0.1-0.1-0.1-0.2l-4-6.9l-2.3,2.3l4.3,7.5c0,0.1,0.1,0.1,0.1,0.2c0.1,0.1,0.2,0.2,0.3,0.3l0.2,0.2
		c0.3,0.3,0.5,0.5,0.9,0.6h0.1c0,0,0,0,0.1,0h0.1c0.1,0.1,0.3,0.1,0.4,0.1c0.3,0.1,0.6,0.1,0.9,0.1h9.2c0.9,0,1.7-0.4,2.3-1
		c0.1-0.1,0.2-0.2,0.3-0.3l0.1-0.1l0.2-0.4l4.5-7.9c0.6-1,0.6-2.3,0-3.3L178.8,7.8z"/>
</g>
<g>
	<path class="st5" d="M33,37.7h5.7v15.1h0.8l1.8-3.1l6.8-12h5.8l-9.2,16.5L54,71.2h-6.1l-6.8-12.2l-1.8-3h-0.7v15.2H33V37.7z"/>
	<path class="st5" d="M73.6,56.2H63.2v15h-5.7V37.7h5.7v14.3h10.4V37.7h5.7v33.4h-5.7V56.2z"/>
	<path class="st5" d="M94.5,37.3h1.2c8.1,0,10,3.6,10,10.3V61c0,6.9-1.9,10.5-9.9,10.5h-1.2c-8.3,0-10.2-3.6-10.2-10.5V47.7
		C84.3,40.9,86.2,37.3,94.5,37.3z M95.1,68.1c2.6,0,4.9-0.3,4.9-5.8V46.6c0-5.2-2-5.8-4.9-5.8c-3,0-5.1,0.6-5.1,5.8v15.7
		C90,67.7,92.6,68.1,95.1,68.1z"/>
	<path class="st5" d="M110.7,37.7h9.3c9.5,0,11.8,3.1,11.8,9.2c0,6.9-3.7,9.2-12.9,9.2h-2.4v15h-5.7V37.7H110.7z M119.7,52.7
		c4.2,0,6.5-1.3,6.5-5.3v-1.2c0-3.3-1.8-5-6.4-5h-3.3v11.5H119.7z"/>
	<path class="st5" d="M146,37.3h1.2c8.1,0,10,3.6,10,10.3V61c0,6.9-1.9,10.5-9.9,10.5h-1.2c-8.3,0-10.2-3.6-10.2-10.5V47.7
		C135.8,40.9,137.6,37.3,146,37.3z M146.6,68.1c2.6,0,4.9-0.3,4.9-5.8V46.6c0-5.2-2-5.8-4.9-5.8c-3,0-5.1,0.6-5.1,5.8v15.7
		C141.5,67.7,143.9,68.1,146.6,68.1z"/>
	<path class="st5" d="M162.2,37.7h5.7v29.3h11.2v4.1h-16.8V37.7H162.2z"/>
	<path class="st5" d="M183.2,37.7h5.7v33.4h-5.7V37.7z"/>
	<path class="st5" d="M202.6,37.7h9.3c9.5,0,11.8,3.1,11.8,9.2c0,6.9-3.7,9.2-12.9,9.2h-2.4v15h-5.7V37.7H202.6z M211.5,52.7
		c4.2,0,6.5-1.3,6.5-5.3v-1.2c0-3.3-1.8-5-6.4-5h-3.3v11.5H211.5z"/>
	<path class="st5" d="M227.9,37.7h5.7v29.3h11.2v4.1h-16.8V37.7H227.9z"/>
	<path class="st5" d="M258,37.3h1.2c8.1,0,10,3.6,10,10.3V61c0,6.9-1.9,10.5-9.9,10.5h-1.2c-8.3,0-10.2-3.6-10.2-10.5V47.7
		C247.8,40.9,249.6,37.3,258,37.3z M258.7,68.1c2.6,0,4.9-0.3,4.9-5.8V46.6c0-5.2-2-5.8-4.9-5.8c-3,0-5.1,0.6-5.1,5.8v15.7
		C253.5,67.7,256,68.1,258.7,68.1z"/>
	<path class="st5" d="M272.2,37.7h19.5v4.1H285v29.3h-5.7V41.8h-6.9v-4.1H272.2z"/>
	<path class="st5" d="M304.9,37.3c5.8,0,10.2,1.9,10.2,7.9v2h-5.6v-1.1c0-3.7-1.9-5-4.5-5c-2.2,0-4.5,0.9-4.5,3.6v0.1
		c0,2.6,2.4,4.5,4.5,6.1l4.9,3.5c3.8,2.8,5.1,5.5,5.1,9.4v0.2c0,4.1-2.2,7.6-9.9,7.6c-7.5,0-10-2.6-10-9.2v-2h5.4V63
		c0,3.9,2.3,5,4.6,5s4.3-1,4.3-4.1v-0.2c0-2.4-1.4-4.1-4.1-6.1l-5-3.6c-4.2-3.1-5.6-5.4-5.6-8.9v-0.1
		C294.9,40.2,298.1,37.3,304.9,37.3z"/>
</g>
<g>
	<path class="st6" d="M50,96.2V86.1h1.4v10.1H50z M51.2,93.7V92l5.7-5.9h1.6l-4.4,4.7l-0.8,0.9L51.2,93.7z M57.1,96.2L53,91.4l1-1.1
		l4.9,5.9C58.9,96.2,57.1,96.2,57.1,96.2z"/>
	<path class="st6" d="M64.7,96.2h-1.4V86.1h1.4V96.2z M70.6,91.7h-6.1v-1.3h6.1V91.7z M70.5,86.1h1.4v10.1h-1.4V86.1z"/>
	<path class="st6" d="M82.4,96.3c-0.8,0-1.5-0.1-2.1-0.4c-0.7-0.3-1.2-0.6-1.7-1.1s-0.9-1-1.1-1.6c-0.3-0.6-0.4-1.3-0.4-2
		s0.1-1.4,0.4-2s0.6-1.2,1.1-1.6c0.5-0.5,1-0.8,1.7-1.1c0.7-0.3,1.4-0.4,2.1-0.4c0.8,0,1.5,0.1,2.1,0.4c0.7,0.3,1.2,0.6,1.7,1.1
		s0.9,1,1.1,1.6c0.3,0.6,0.4,1.3,0.4,2.1c0,0.8-0.1,1.4-0.4,2.1C87,94,86.7,94.6,86.2,95c-0.5,0.5-1,0.8-1.7,1.1
		C83.9,96.2,83.1,96.3,82.4,96.3z M82.4,95c0.6,0,1.1-0.1,1.6-0.3c0.5-0.2,0.9-0.5,1.2-0.8c0.4-0.4,0.6-0.8,0.8-1.2
		c0.2-0.5,0.3-1,0.3-1.5S86.2,90,86,89.6s-0.5-0.9-0.8-1.2c-0.4-0.4-0.8-0.6-1.2-0.8c-0.5-0.2-1-0.3-1.6-0.3s-1.1,0.1-1.6,0.3
		c-0.5,0.2-0.9,0.5-1.2,0.8c-0.4,0.4-0.6,0.8-0.8,1.2s-0.3,1-0.3,1.5s0.1,1.1,0.3,1.5c0.2,0.5,0.5,0.9,0.8,1.2
		c0.4,0.4,0.8,0.6,1.2,0.8C81.3,94.9,81.8,95,82.4,95z"/>
	<path class="st6" d="M92.8,96.2V86.1h3.9c0.9,0,1.6,0.1,2.3,0.4c0.6,0.3,1.1,0.7,1.4,1.2s0.5,1.2,0.5,1.9c0,0.7-0.2,1.4-0.5,1.9
		s-0.8,0.9-1.4,1.2c-0.6,0.3-1.4,0.4-2.3,0.4h-3.1l0.6-0.7v3.7L92.8,96.2L92.8,96.2z M94.3,92.6l-0.6-0.7h3.1c0.9,0,1.6-0.2,2.1-0.6
		s0.7-1,0.7-1.7s-0.2-1.3-0.7-1.7c-0.5-0.4-1.2-0.6-2.1-0.6h-3.1l0.6-0.7V92.6z"/>
	<path class="st6" d="M110.7,96.3c-0.8,0-1.5-0.1-2.1-0.4c-0.7-0.3-1.2-0.6-1.7-1.1s-0.9-1-1.1-1.6c-0.3-0.6-0.4-1.3-0.4-2
		s0.1-1.4,0.4-2s0.6-1.2,1.1-1.6c0.5-0.5,1-0.8,1.7-1.1c0.7-0.3,1.4-0.4,2.1-0.4c0.8,0,1.5,0.1,2.1,0.4c0.7,0.3,1.2,0.6,1.7,1.1
		s0.9,1,1.1,1.6c0.3,0.6,0.4,1.3,0.4,2.1c0,0.8-0.1,1.4-0.4,2.1c-0.3,0.6-0.6,1.2-1.1,1.6c-0.5,0.5-1,0.8-1.7,1.1
		C112.2,96.2,111.5,96.3,110.7,96.3z M110.7,95c0.6,0,1.1-0.1,1.6-0.3c0.5-0.2,0.9-0.5,1.2-0.8c0.4-0.4,0.6-0.8,0.8-1.2
		c0.2-0.5,0.3-1,0.3-1.5s-0.1-1.1-0.3-1.5s-0.5-0.9-0.8-1.2c-0.4-0.4-0.8-0.6-1.2-0.8c-0.5-0.2-1-0.3-1.6-0.3s-1.1,0.1-1.6,0.3
		c-0.5,0.2-0.9,0.5-1.2,0.8c-0.4,0.4-0.6,0.8-0.8,1.2s-0.3,1-0.3,1.5s0.1,1.1,0.3,1.5c0.2,0.5,0.5,0.9,0.8,1.2
		c0.4,0.4,0.8,0.6,1.2,0.8C109.6,94.9,110.1,95,110.7,95z"/>
	<path class="st6" d="M121.1,96.2V86.1h1.4v8.8h5.5v1.3C128,96.2,121.1,96.2,121.1,96.2z"/>
	<path class="st6" d="M132.6,96.2V86.1h1.4v10.1H132.6z"/>
	<path class="st6" d="M139.2,98.3l0.7-2.9l0.2,0.8c-0.3,0-0.5-0.1-0.7-0.3s-0.3-0.4-0.3-0.7c0-0.3,0.1-0.5,0.3-0.7s0.4-0.3,0.7-0.3
		s0.5,0.1,0.7,0.3c0.2,0.2,0.3,0.4,0.3,0.7c0,0.1,0,0.2,0,0.3c0,0.1,0,0.2-0.1,0.3c0,0.1-0.1,0.3-0.2,0.4l-0.7,2L139.2,98.3
		L139.2,98.3z"/>
	<path class="st6" d="M152.9,96.2V86.1h1.2l4.5,7.6H158l4.5-7.6h1.2v10.1h-1.4v-7.9h0.3l-4,6.7h-0.7l-4-6.7h0.4v7.9H152.9z"/>
	<path class="st6" d="M168,96.2l4.6-10.1h1.4l4.6,10.1h-1.5l-4.1-9.3h0.6l-4.1,9.3H168z M170,93.6l0.4-1.2h5.7l0.4,1.2H170z"/>
	<path class="st6" d="M184.4,96.2H183V86.1h1.4V96.2z M190.4,91.7h-6.1v-1.3h6.1V91.7z M190.2,86.1h1.4v10.1h-1.4V86.1z"/>
	<path class="st6" d="M196.1,96.2l4.6-10.1h1.4l4.6,10.1h-1.5l-4.1-9.3h0.6l-4.1,9.3H196.1z M198,93.6l0.4-1.2h5.7l0.4,1.2H198z"/>
	<path class="st6" d="M211.1,96.2V86.1h3.9c0.9,0,1.6,0.1,2.3,0.4c0.6,0.3,1.1,0.7,1.4,1.2s0.5,1.2,0.5,1.9c0,0.7-0.2,1.4-0.5,1.9
		s-0.8,0.9-1.4,1.2c-0.6,0.3-1.4,0.4-2.3,0.4h-3.1l0.6-0.7v3.7L211.1,96.2L211.1,96.2z M212.5,92.6l-0.6-0.7h3.1
		c0.9,0,1.6-0.2,2.1-0.6s0.7-1,0.7-1.7s-0.2-1.3-0.7-1.7c-0.5-0.4-1.2-0.6-2.1-0.6h-3.1l0.6-0.7V92.6z M217.8,96.2l-2.6-3.7h1.5
		l2.6,3.7H217.8z"/>
	<path class="st6" d="M222.9,96.2l4.6-10.1h1.4l4.6,10.1H232l-4.1-9.3h0.6l-4.1,9.3H222.9z M224.9,93.6l0.4-1.2h5.7l0.4,1.2H224.9z"
		/>
	<path class="st6" d="M240.8,96.3c-0.8,0-1.5-0.1-2.2-0.4c-0.7-0.2-1.3-0.5-1.7-0.9l0.5-1.1c0.4,0.3,0.9,0.6,1.5,0.8
		c0.6,0.2,1.2,0.3,1.9,0.3c0.6,0,1.1-0.1,1.4-0.2s0.6-0.3,0.8-0.6c0.2-0.2,0.3-0.5,0.3-0.8s-0.1-0.6-0.3-0.8
		c-0.2-0.2-0.5-0.4-0.9-0.5s-0.8-0.2-1.2-0.3c-0.4-0.1-0.9-0.2-1.3-0.3c-0.4-0.1-0.8-0.3-1.2-0.5s-0.7-0.5-0.9-0.8s-0.3-0.8-0.3-1.3
		s0.1-1,0.4-1.4s0.7-0.8,1.3-1.1c0.6-0.3,1.3-0.4,2.2-0.4c0.6,0,1.2,0.1,1.7,0.2c0.6,0.2,1.1,0.4,1.5,0.7l-0.5,1.2
		c-0.4-0.3-0.9-0.5-1.4-0.6s-0.9-0.2-1.4-0.2c-0.6,0-1,0.1-1.4,0.2s-0.6,0.3-0.8,0.6c-0.2,0.2-0.3,0.5-0.3,0.8
		c0,0.4,0.1,0.6,0.3,0.9c0.2,0.2,0.5,0.4,0.9,0.5s0.8,0.2,1.2,0.3c0.4,0.1,0.9,0.2,1.3,0.3c0.4,0.1,0.8,0.3,1.2,0.5s0.7,0.5,0.9,0.8
		s0.3,0.8,0.3,1.3s-0.1,1-0.4,1.4s-0.7,0.8-1.3,1.1S241.7,96.3,240.8,96.3z"/>
	<path class="st6" d="M251.2,96.2h-1.4V86.1h1.4V96.2z M257.1,91.7H251v-1.3h6.1V91.7z M257,86.1h1.4v10.1H257V86.1z"/>
	<path class="st6" d="M266.3,96.2v-8.8h-3.5v-1.3h8.4v1.3h-3.5v8.8H266.3z"/>
	<path class="st6" d="M275.7,96.2V86.1h3.9c0.9,0,1.6,0.1,2.3,0.4c0.6,0.3,1.1,0.7,1.4,1.2s0.5,1.2,0.5,1.9c0,0.7-0.2,1.4-0.5,1.9
		s-0.8,0.9-1.4,1.2c-0.6,0.3-1.4,0.4-2.3,0.4h-3.1l0.6-0.7v3.7L275.7,96.2L275.7,96.2z M277.1,92.6l-0.6-0.7h3.1
		c0.9,0,1.6-0.2,2.1-0.6s0.7-1,0.7-1.7s-0.2-1.3-0.7-1.7c-0.5-0.4-1.2-0.6-2.1-0.6h-3.1l0.6-0.7V92.6z M282.4,96.2l-2.6-3.7h1.5
		l2.6,3.7H282.4z"/>
	<path class="st6" d="M287.5,96.2l4.6-10.1h1.4l4.6,10.1h-1.5l-4.1-9.3h0.6l-4.1,9.3H287.5z M289.5,93.6l0.4-1.2h5.7l0.4,1.2H289.5z
		"/>
</g>
<polyline class="st7" points="243.9,20.3 328.9,20.3 328.9,78.3 19.1,78.3 19.1,20.3 100.6,20.3 "/>
</svg>
