<?xml version="1.0" encoding="utf-8"?>
<!-- Generator: Adobe Illustrator 25.4.1, SVG Export Plug-In . SVG Version: 6.00 Build 0)  -->
<svg version="1.1" id="Layer_1" xmlns="http://www.w3.org/2000/svg" xmlns:xlink="http://www.w3.org/1999/xlink" x="0px" y="0px"
	 viewBox="0 0 348 104" style="enable-background:new 0 0 348 104;" xml:space="preserve">
<style type="text/css">
	.st0{fill:#BB9732;}
	.st1{fill:#D2903A;}
	.st2{clip-path:url(#SVGID_00000068671750407296085820000008583218970007151545_);fill:#FFFFFF;}
</style>
<g>
	<path class="st0" d="M104.96,59.79h3.41v9.71c-2.49,2.1-5.94,3.16-9.42,3.16c-7.64,0-13.26-5.37-13.26-12.73
		c0-7.36,5.62-12.73,13.33-12.73c3.95,0,7.29,1.32,9.56,3.84l-2.2,2.2c-2.06-1.99-4.41-2.88-7.22-2.88c-5.76,0-9.92,4.02-9.92,9.56
		c0,5.48,4.16,9.56,9.88,9.56c2.1,0,4.05-0.46,5.83-1.6V59.79z"/>
	<path class="st0" d="M130.8,66.15h-13.22l-2.74,6.22h-3.66l11.27-24.88h3.52l11.3,24.88h-3.73L130.8,66.15z M129.55,63.31
		l-5.37-12.19l-5.37,12.19H129.55z"/>
	<path class="st0" d="M157.39,72.37l-5.37-7.64c-0.5,0.04-1.03,0.07-1.56,0.07h-6.15v7.57h-3.56V47.49h9.71
		c6.47,0,10.38,3.27,10.38,8.67c0,3.84-1.99,6.61-5.48,7.86l5.9,8.35H157.39z M157.28,56.16c0-3.55-2.38-5.58-6.93-5.58h-6.04v11.2
		h6.04C154.9,61.78,157.28,59.71,157.28,56.16"/>
	<path class="st0" d="M166.38,47.49h10.49c8,0,13.44,5.05,13.44,12.44c0,7.39-5.44,12.44-13.44,12.44h-10.49V47.49z M176.65,69.28
		c6.15,0,10.1-3.77,10.1-9.35c0-5.58-3.95-9.35-10.1-9.35h-6.72v18.7H176.65z"/>
	<polygon class="st0" points="213.58,69.28 213.58,72.37 195.52,72.37 195.52,47.49 213.09,47.49 213.09,50.58 199.08,50.58 
		199.08,58.22 211.56,58.22 211.56,61.24 199.08,61.24 199.08,69.28 	"/>
	<polygon class="st0" points="240.53,47.49 240.53,72.37 237.61,72.37 222.68,53.81 222.68,72.37 219.13,72.37 219.13,47.49 
		222.04,47.49 236.97,66.04 236.97,47.49 	"/>
	<path class="st0" d="M255.1,59.93c0-7.36,5.62-12.73,13.19-12.73c3.84,0,7.18,1.32,9.46,3.87l-2.31,2.24
		c-1.92-2.03-4.27-2.95-7-2.95c-5.62,0-9.78,4.05-9.78,9.56c0,5.51,4.16,9.56,9.78,9.56c2.74,0,5.08-0.96,7-2.99l2.31,2.24
		c-2.28,2.56-5.62,3.91-9.49,3.91C260.72,72.66,255.1,67.29,255.1,59.93"/>
	<rect x="282.61" y="47.49" class="st0" width="3.56" height="24.88"/>
	<polygon class="st0" points="298.36,50.58 289.83,50.58 289.83,47.49 310.41,47.49 310.41,50.58 301.88,50.58 301.88,72.37 
		298.36,72.37 	"/>
	<polygon class="st0" points="323.31,63.77 323.31,72.37 319.79,72.37 319.79,63.7 309.91,47.49 313.72,47.49 321.68,60.6 
		329.68,47.49 333.2,47.49 	"/>
	<path class="st1" d="M133.8,35.98c0.08-0.28,0.16-0.57,0.23-0.85c0.87-3.36,1.73-6.72,2.59-10.08c0.07-0.28,0.18-0.38,0.48-0.37
		c0.57,0.02,1.14,0.04,1.7-0.01c0.43-0.03,0.58,0.13,0.68,0.52c0.85,3.48,1.73,6.96,2.6,10.43c0.03,0.12,0.07,0.25,0.19,0.37
		c0.24-1.01,0.48-2.01,0.72-3.02c0.63-2.64,1.26-5.28,1.88-7.92c0.06-0.27,0.16-0.39,0.47-0.38c0.71,0.02,1.43,0.01,2.2,0.01
		c-0.27,1.02-0.53,1.99-0.79,2.97c-1.04,3.85-2.08,7.71-3.11,11.56c-0.08,0.29-0.18,0.41-0.5,0.39c-0.59-0.03-1.19-0.03-1.79,0
		c-0.31,0.01-0.43-0.09-0.51-0.38c-0.88-3.5-1.78-7-2.68-10.5c-0.04-0.15-0.08-0.3-0.22-0.46c-0.98,3.77-1.97,7.54-2.96,11.32h-2.64
		c-1.27-4.94-2.54-9.88-3.82-14.89c0.85,0,1.64-0.01,2.42,0.02c0.08,0,0.2,0.22,0.23,0.35c0.66,2.81,1.31,5.63,1.96,8.44
		c0.19,0.83,0.38,1.65,0.57,2.48C133.73,35.97,133.76,35.97,133.8,35.98"/>
	<path class="st1" d="M126.34,39.6c-0.84,0-1.63,0.02-2.42-0.02c-0.15-0.01-0.35-0.18-0.44-0.33c-2.06-3.4-4.12-6.8-6.17-10.2
		c-0.07-0.12-0.15-0.24-0.32-0.35v10.87h-2.37V24.68c0.83,0,1.66-0.02,2.49,0.01c0.12,0.01,0.27,0.2,0.35,0.33
		c2.03,3.35,4.06,6.7,6.08,10.05c0.1,0.17,0.21,0.34,0.42,0.49V24.71h2.37V39.6z"/>
	<path class="st1" d="M97.69,39.6c-0.78,0-1.58,0.01-2.38-0.01c-0.11,0-0.3-0.16-0.32-0.27c-0.11-0.54-0.19-1.08-0.25-1.63
		c-0.08-0.78-0.06-1.57-0.2-2.34c-0.23-1.21-0.96-1.81-2.23-1.87c-1.32-0.06-2.65-0.04-3.98-0.05c-0.07,0-0.14,0.02-0.27,0.05v6.1
		h-2.52V24.72c0.08-0.01,0.15-0.04,0.21-0.04c2.52,0,5.04-0.03,7.57,0.03c1.36,0.03,2.57,0.5,3.36,1.68
		c0.91,1.35,0.94,4.05-0.61,5.39c-0.32,0.27-0.7,0.47-1.1,0.73c0.65,0.15,1.2,0.46,1.55,1.03c0.37,0.59,0.51,1.23,0.54,1.91
		c0.04,0.82,0.07,1.66,0.18,2.47C97.31,38.47,97.52,39.01,97.69,39.6 M88.08,31.43c0.08,0.02,0.13,0.05,0.19,0.05
		c1.4,0,2.81,0.03,4.21-0.01c0.97-0.03,1.83-0.38,2.11-1.37c0.15-0.57,0.15-1.21,0.07-1.8c-0.12-0.84-0.71-1.38-1.57-1.42
		c-1.64-0.08-3.28-0.06-4.92-0.07c-0.02,0-0.04,0.03-0.08,0.06V31.43z"/>
	<path class="st1" d="M109.17,24.71h2.55v0.45c0,3.01,0.03,6.02-0.02,9.02c-0.01,0.84-0.17,1.71-0.43,2.51
		c-0.48,1.46-1.56,2.42-3.05,2.9c-1.62,0.51-3.26,0.53-4.88,0.03c-2.08-0.64-3.17-2.11-3.5-4.16c-0.07-0.49-0.09-0.98-0.09-1.48
		c-0.01-2.92,0-5.84,0-8.76v-0.5h2.55v0.5c0,2.82-0.01,5.64,0.01,8.46c0,0.59,0.03,1.2,0.15,1.77c0.33,1.54,1.57,2.37,3.38,2.25
		c0.62-0.04,1.29-0.15,1.84-0.42c1.14-0.56,1.42-1.66,1.47-2.8c0.04-0.99,0.04-1.98,0.04-2.96c0.01-2.09,0-4.19,0-6.28V24.71z"/>
	<path class="st1" d="M160.4,39.6c-0.83,0-1.62-0.01-2.41,0.01c-0.26,0.01-0.33-0.12-0.39-0.31c-0.37-1.09-0.76-2.17-1.11-3.26
		c-0.1-0.3-0.24-0.4-0.57-0.4c-1.67,0.02-3.34,0.02-5.01,0c-0.31,0-0.44,0.1-0.53,0.38c-0.36,1.09-0.76,2.17-1.12,3.26
		c-0.08,0.25-0.2,0.34-0.47,0.33c-0.73-0.02-1.46-0.01-2.25-0.01c0.12-0.34,0.22-0.64,0.33-0.93c1.69-4.52,3.39-9.03,5.07-13.56
		c0.12-0.32,0.27-0.46,0.63-0.44c0.65,0.03,1.31-0.01,1.97,0.02c0.13,0,0.34,0.13,0.38,0.24c1.82,4.83,3.63,9.66,5.44,14.49
		C160.38,39.46,160.38,39.51,160.4,39.6 M151.21,33.66h4.46c-0.73-2.15-1.45-4.26-2.17-6.37c-0.04,0.01-0.07,0.01-0.11,0.02
		C152.67,29.41,151.94,31.52,151.21,33.66"/>
	<polygon class="st1" points="171.79,37.33 171.79,39.57 161.9,39.57 161.9,24.71 164.35,24.71 164.35,37.33 	"/>
	<g>
		<polygon points="88.13,86.03 86.91,87.38 86.91,89.22 85.69,89.22 85.69,82 86.91,82 86.91,85.73 90.35,82 91.79,82 88.99,85.08 
			91.97,89.22 90.51,89.22 		"/>
		<path d="M96.8,87.59l-0.69,1.63h-1.27L98.02,82h1.25l3.16,7.22h-1.3l-0.69-1.63H96.8z M98.61,83.3l-1.36,3.21h2.73L98.61,83.3z"/>
		<polygon points="110.41,88.12 110.41,89.22 106.07,89.22 106.07,82 107.29,82 107.29,88.12 		"/>
		<polygon points="117.22,89.22 116.01,89.22 116.01,86.86 113.32,82 114.55,82 116.61,85.52 118.63,82 119.87,82 117.22,86.82 		
			"/>
		<path d="M124.03,87.59l-0.69,1.63h-1.27l3.19-7.22h1.25l3.16,7.22h-1.3l-0.69-1.63H124.03z M125.84,83.3l-1.36,3.21h2.72
			L125.84,83.3z"/>
		<polygon points="138.37,89.22 134.52,84.04 134.52,89.22 133.3,89.22 133.3,82 134.5,82 138.37,87.19 138.37,82 139.57,82 
			139.57,89.22 		"/>
		<rect x="143.83" y="85.67" width="2.54" height="0.82"/>
		<path d="M155.53,82.69l-0.51,1.07c-0.78-0.48-1.57-0.67-2.12-0.67c-0.71,0-1.18,0.27-1.18,0.75c0,1.58,3.9,0.73,3.89,3.33
			c0,1.29-1.13,2.08-2.72,2.08c-1.13,0-2.21-0.46-2.95-1.15l0.52-1.05c0.74,0.68,1.67,1.05,2.45,1.05c0.85,0,1.35-0.32,1.35-0.88
			c0-1.61-3.9-0.71-3.9-3.28c0-1.24,1.06-2.01,2.63-2.01C153.94,81.95,154.86,82.24,155.53,82.69"/>
		<polygon points="164.77,89.22 164.77,86.23 160.95,86.23 160.95,89.22 159.73,89.22 159.73,82 160.95,82 160.95,85.13 
			164.77,85.13 164.77,82 165.99,82 165.99,89.22 		"/>
		<rect x="170.57" y="82" width="1.22" height="7.22"/>
		<polygon points="180.71,88.12 180.71,89.22 176.37,89.22 176.37,82 177.58,82 177.58,88.12 		"/>
		<path d="M193.16,87.03c-0.1,0.01-0.22,0.01-0.33,0.01h-1.71v2.18h-1.22V82h2.93c1.85,0,2.91,0.9,2.91,2.47
			c0,1.16-0.54,1.97-1.5,2.34l1.62,2.42h-1.38L193.16,87.03z M192.83,85.95c1.11,0,1.75-0.47,1.75-1.45c0-0.95-0.64-1.4-1.75-1.4
			h-1.71v2.86H192.83z"/>
		<path d="M203,82c2.17,0,3.74,1.52,3.74,3.61c0,2.09-1.58,3.61-3.77,3.61h-2.93V82H203z M201.26,88.13h1.78
			c1.4,0,2.48-1.04,2.48-2.51c0-1.48-1.1-2.53-2.53-2.53h-1.72V88.13z"/>
		<path d="M211.52,88.63c0,0.21-0.07,0.38-0.19,0.55l-0.59,0.89h-0.61l0.39-0.9c-0.19-0.12-0.28-0.32-0.28-0.54
			c0-0.38,0.27-0.66,0.64-0.66C211.22,87.97,211.52,88.22,211.52,88.63"/>
		<path d="M223.91,82c2.17,0,3.74,1.52,3.74,3.61c0,2.09-1.58,3.61-3.77,3.61h-2.93V82H223.91z M222.16,88.13h1.77
			c1.41,0,2.48-1.04,2.48-2.51c0-1.48-1.1-2.53-2.53-2.53h-1.72V88.13z"/>
		<path d="M238.39,85.61c0,2.06-1.67,3.66-3.83,3.66c-2.16,0-3.83-1.6-3.83-3.66c0-2.07,1.67-3.64,3.83-3.64
			C236.72,81.97,238.39,83.54,238.39,85.61 M231.97,85.61c0,1.43,1.19,2.57,2.6,2.57c1.42,0,2.57-1.14,2.57-2.57
			c0-1.43-1.16-2.55-2.57-2.55C233.15,83.06,231.97,84.17,231.97,85.61"/>
		<polygon points="248.88,89.22 248.87,83.82 246.59,88.47 245.8,88.47 243.52,83.82 243.52,89.22 242.37,89.22 242.37,82 
			243.82,82 246.2,86.8 248.57,82 250.01,82 250.01,89.22 		"/>
		<path d="M257.73,82c1.5,0,2.42,0.68,2.42,1.81c0,0.82-0.48,1.42-1.27,1.61c0.97,0.16,1.55,0.86,1.55,1.83c0,1.24-1,1.98-2.63,1.98
			h-3.21V82H257.73z M255.81,84.99h1.86c0.77,0,1.24-0.36,1.24-0.97c0-0.61-0.46-0.94-1.24-0.94h-1.86V84.99z M255.81,88.14h1.86
			c0.95,0,1.52-0.37,1.52-1.05c0-0.64-0.57-1.02-1.52-1.02h-1.86V88.14z"/>
		<rect x="264.56" y="82" width="1.22" height="7.22"/>
		<polygon points="272.32,89.22 269.44,82 270.75,82 272.98,87.87 275.23,82 276.5,82 273.58,89.22 		"/>
		<polygon points="284.5,88.12 284.5,89.22 280.15,89.22 280.15,82 281.37,82 281.37,88.12 		"/>
		<rect x="288.34" y="82" width="1.22" height="7.22"/>
		<polygon points="300.7,83.09 300.7,85.04 304.23,85.04 304.23,86.14 300.7,86.14 300.7,88.13 304.77,88.13 304.77,89.22 
			299.48,89.22 299.48,82 304.64,82 304.64,83.09 		"/>
		<path d="M309.95,87.59l-0.69,1.63h-1.27l3.19-7.22h1.25l3.16,7.22h-1.3l-0.69-1.63H309.95z M311.77,83.3l-1.36,3.21h2.72
			L311.77,83.3z"/>
		<path d="M324.07,82.69l-0.5,1.07c-0.78-0.48-1.57-0.67-2.12-0.67c-0.71,0-1.18,0.27-1.18,0.75c0,1.58,3.9,0.73,3.89,3.33
			c0,1.29-1.14,2.08-2.73,2.08c-1.13,0-2.21-0.46-2.95-1.15l0.53-1.05c0.74,0.68,1.67,1.05,2.45,1.05c0.85,0,1.35-0.32,1.35-0.88
			c0-1.61-3.9-0.71-3.9-3.28c0-1.24,1.06-2.01,2.63-2.01C322.48,81.95,323.4,82.24,324.07,82.69"/>
		<polygon points="330.91,83.09 330.91,89.22 329.69,89.22 329.69,83.09 327.41,83.09 327.41,82 333.2,82 333.2,83.09 		"/>
	</g>
	<g>
		<path class="st1" d="M72.01,87.66H16.84v-0.01H14.8v5.5c0,2.88,2.26,5.21,5.04,5.21h49.19c2.78,0,5.03-2.33,5.03-5.21v-5.5h-2.06
			V87.66z"/>
		<rect x="14.8" y="76.66" class="st1" width="59.26" height="5.49"/>
		<path class="st1" d="M69.04,5.65H19.85c-2.78,0-5.04,2.33-5.04,5.2v60.31h2.03v-0.01h55.17v0.01h2.05V10.85
			C74.07,7.98,71.82,5.65,69.04,5.65"/>
		<path class="st1" d="M69.04,5.65H19.85c-2.78,0-5.04,2.33-5.04,5.2v60.31h2.03v-0.01h55.17v0.01h2.05V10.85
			C74.07,7.98,71.82,5.65,69.04,5.65"/>
		<g>
			<defs>
				<path id="SVGID_1_" d="M19.85,5.65c-2.78,0-5.04,2.33-5.04,5.2v60.31h2.03v-0.01h55.17v0.01h2.06V10.85
					c0-2.87-2.25-5.2-5.03-5.2H19.85z"/>
			</defs>
			<clipPath id="SVGID_00000012441398348331575410000013308730239016830101_">
				<use xlink:href="#SVGID_1_"  style="overflow:visible;"/>
			</clipPath>
			<path style="clip-path:url(#SVGID_00000012441398348331575410000013308730239016830101_);fill:#FFFFFF;" d="M69.56,22.78h0.04
				v-0.01L69.56,22.78L69.56,22.78z M71.48,22.77c-0.32-0.12-0.64-0.21-0.94-0.26V22.5c-0.82-0.13-1.7-0.22-2.64-0.23
				c-4.87-0.06-7.96,1.97-7.96,1.97s-5.52-3.57-12.18-3.05c-7.86,0.63-10.63,5.59-10.63,5.59s-5.94-2-12.13,1.15
				c-6.19,3.16-10.14,8.39-10.14,16.74c0,7.31,5.46,13.17,14.53,13.39c6,0.15,16.07-3.16,18.55-8.58c1.16-2.53,3.25-7.28,3.25-7.28
				s2.69,1.32,2.34,4.31c-0.21,1.78-0.85,5.01-0.07,7.53c0.78,2.53,4.09,4.25,7.28,4.07c3.2-0.18,5.56-1.33,6.21-4.09
				c0.65-2.77-1.38-5.22-1.79-5.98c-0.42-0.76-1.04-0.47-0.62,0.23c0.41,0.71,1.74,2.69,1.71,4.49c-0.01,1.8-1.3,3.92-3.41,4.36
				c-2.1,0.44-3.97-0.6-4.75-1.98c-0.78-1.38-0.28-7.44-0.67-9.03c-0.39-1.59-3.19-3.86-3.19-3.86s10.17-0.73,11.78-7.6
				c1.42-6.07-5.18-9.87-5.18-9.87s2.57-2.11,7.15-2.11c0.62,0,1.23,0.04,1.82,0.1c0.86,0.11,1.61,0.31,2.09,0.57
				c1.63,0.78,1.79,1.93,1.6,2.72c-0.16,0.82-0.58,1.17-0.75,1.28c-0.75,0.48-1.31,0.42-1.74,0.32c-0.27-0.06-0.48-0.19-0.59-0.11
				c-0.01,0.01-0.02,0.02-0.03,0.03c-0.04,0.07,0.04,0.15,0.47,0.36c0.39,0.22,1.34,0.35,1.99-0.04c0.32-0.17,1.09-0.77,1.15-1.9
				C74.11,24.89,73.87,23.61,71.48,22.77 M37.43,27.49c0,0,3.59,1.68,5.87,5.63c2.25,3.89,1.1,7.44,1.1,7.44s-5.73,2.55-8.27-1.83
				c-1.72-2.95-0.59-7.05-0.16-8.3C36.47,28.99,37.43,27.49,37.43,27.49 M49.18,34.71c-2.05,3.81-4.86,11.73-6.81,15.3
				c-1.95,3.57-7.44,8.06-13.47,7.75c-6.02-0.31-14.69-4.32-13.62-14.99c1.23-12.26,11.81-15.93,15.86-16.22
				c4.22-0.31,5.77,0.57,5.77,0.57s-1.44,2.59-1.91,4.71c-0.37,1.71-0.81,5.7,1.35,8.1c2.9,3.23,7.97,1.33,7.97,1.33
				s-1.12,4.39-3.46,6.99c-1.62,1.8-4.62,5.18-10.27,5.14c-7.81-0.05-10.81-6.73-11.13-7.82c-0.31-1.1-0.54-0.82-0.27,0.02
				c0.25,0.83,3.09,8.16,11.38,8.06c11.6-0.13,14.33-12.67,14.33-12.67s0.53-0.35,1.1-0.9c0.57-0.54,0.9-0.99,0.94-1.79
				c0.04-0.87-0.34-1.15-0.42-0.09c-0.09,1.22-1.48,2.04-1.48,2.04s0.83-4.49-1.58-8.22c-2.42-3.73-5.73-5-5.73-5
				s2.95-5.26,11.45-5.38c5.88-0.09,10,3.02,10,3.02s-2.26,1.38-3.61,2.46C54.22,28.19,51.24,30.9,49.18,34.71 M60.8,37.35
				c-2.95,4.64-9.2,3.89-9.2,3.89s1.61-5.17,3.43-10.39c1.1-3.17,4.77-5.48,4.77-5.48S65.76,29.55,60.8,37.35"/>
		</g>
	</g>
</g>
</svg>
